HIERARCHY
ROOT Hips
{
	OFFSET -0.179506 -22.333345 2.821913
	CHANNELS 6 Xposition Yposition Zposition Zrotation Yrotation Xrotation 
	JOINT LeftUpLeg
	{
		OFFSET 6.951974 -9.140623 -0.681533
		CHANNELS 3 Zrotation Yrotation Xrotation
		JOINT LeftLeg
		{
			OFFSET 3.427654 -37.519855 -0.449580
			CHANNELS 3 Zrotation Yrotation Xrotation
			JOINT LeftFoot
			{
				OFFSET -1.359570 -39.796059 -4.369333
				CHANNELS 3 Zrotation Yrotation Xrotation
				JOINT LeftToe
				{
					OFFSET 2.635814 -5.579078 11.928840
					CHANNELS 3 Zrotation Yrotation Xrotation
					End Site
					{
						OFFSET 0.000000 0.000000 0.000000
					}
				}
			}
		}
	}
	JOINT RightUpLeg
	{
		OFFSET -6.767048 -9.052170 -0.431982
		CHANNELS 3 Zrotation Yrotation Xrotation
		JOINT RightLeg
		{
			OFFSET -3.829005 -38.256897 -0.885003
			CHANNELS 3 Zrotation Yrotation Xrotation
			JOINT RightFoot
			{
				OFFSET 1.577377 -39.841461 -4.231180
				CHANNELS 3 Zrotation Yrotation Xrotation
				JOINT RightToe
				{
					OFFSET -2.537174 -4.814398 12.334795
					CHANNELS 3 Zrotation Yrotation Xrotation
					End Site
					{
						OFFSET 0.000000 0.000000 0.000000
					}
				}
			}
		}
	}
	JOINT Spine
	{
		OFFSET -0.253288 10.896323 -2.669631
		CHANNELS 3 Zrotation Yrotation Xrotation
		JOINT Spine1
		{
			OFFSET 0.548704 13.518043 0.109247
			CHANNELS 3 Zrotation Yrotation Xrotation
			JOINT Spine2
			{
				OFFSET 0.145701 5.292222 2.542457
				CHANNELS 3 Zrotation Yrotation Xrotation
				JOINT Neck
				{
					OFFSET -0.277840 21.387037 -4.285703
					CHANNELS 3 Zrotation Yrotation Xrotation
					JOINT Head
					{
						OFFSET 0.515184 6.496960 5.134897
						CHANNELS 3 Zrotation Yrotation Xrotation
						End Site
						{
							OFFSET 0.000000 0.000000 0.000000
						}
					}
				}
				JOINT LeftShoulder
				{
					OFFSET 7.884473 12.174932 -3.408961
					CHANNELS 3 Zrotation Yrotation Xrotation
					JOINT LeftArm
					{
						OFFSET 9.097692 3.046888 -0.886815
						CHANNELS 3 Zrotation Yrotation Xrotation
						JOINT LeftForeArm
						{
							OFFSET 25.961220 -1.277207 -2.745643
							CHANNELS 3 Zrotation Yrotation Xrotation
							JOINT LeftHand
							{
								OFFSET 24.923361 0.898606 -0.117091
								CHANNELS 3 Zrotation Yrotation Xrotation
								End Site
								{
									OFFSET 0.000000 0.000000 0.000000
								}
							}
						}
					}
				}
				JOINT RightShoulder
				{
					OFFSET -8.175920 11.883285 -3.861528
					CHANNELS 3 Zrotation Yrotation Xrotation
					JOINT RightArm
					{
						OFFSET -9.601238 3.255117 -0.914307
						CHANNELS 3 Zrotation Yrotation Xrotation
						JOINT RightForeArm
						{
							OFFSET -25.374195 -1.332924 -2.140099
							CHANNELS 3 Zrotation Yrotation Xrotation
							JOINT RightHand
							{
								OFFSET -25.529810 0.777228 -0.555919
								CHANNELS 3 Zrotation Yrotation Xrotation
								End Site
								{
									OFFSET 0.000000 0.000000 0.000000
								}
							}
						}
					}
				}
			}
		}
	}
}
MOTION
Frames: 10
Frame Time: 0.033333
-134.306183 26.927692 99.768616 176.823336 -16.940825 58.995264 59.851371 23.798759 -35.892714 -3.573323 15.264301 60.455990 -17.539560 0.620317 -5.500723 nan nan nan -14.280283 -11.708976 6.727687 2.479355 9.678664 22.292229 1.780447 0.286468 -25.237874 nan nan nan -20.734889 4.788977 16.858720 -1.587752 -12.797883 8.590542 2.023127 -1.947402 -0.702673 -15.552915 23.480925 24.828548 16.103993 13.208341 7.228704 7.805041 -17.218617 -6.076132 -30.795495 -56.785500 -13.664367 68.325114 -55.848629 -47.713671 40.046107 -12.453753 -38.294991 11.176843 3.094583 16.691279 54.612670 -11.719636 4.747838 2.289019 11.095542 37.798552 31.666717 -9.473642 -1.454452 
-134.665405 27.003059 99.624229 179.273120 -15.862641 59.797378 57.898551 22.089872 -35.827840 -3.813216 14.867288 62.582210 -17.424617 0.435115 -4.099768 nan nan nan -13.549322 -11.617327 5.983602 2.292726 8.375039 22.168683 0.908009 0.448049 -25.388163 nan nan nan -20.369314 4.651679 15.899534 -0.854835 -12.967820 8.667377 2.298539 -2.401029 -0.429655 -15.324183 22.421352 24.823697 15.996176 12.249573 7.476091 7.124864 -18.233468 -5.501840 -36.842896 -58.810361 -8.854169 70.920065 -56.302475 -49.137563 39.685906 -12.597142 -39.036972 11.836506 2.945946 16.432236 56.604793 -11.854039 5.131497 2.211226 11.619757 38.196957 31.965084 -8.474524 -3.366099 
-135.060028 26.972279 99.477165 -178.170765 -14.977982 60.739116 55.726843 19.697335 -35.648605 -3.594670 15.075300 64.356673 -17.246103 0.239122 -2.550802 nan nan nan -12.975902 -11.022515 5.063997 1.993631 6.594333 21.960034 0.329184 1.192299 -25.574153 nan nan nan -20.116050 4.582256 14.834284 -0.128642 -13.194029 8.920378 2.563203 -2.791463 -0.191234 -14.692828 21.974785 24.375895 15.587464 10.631105 7.737372 6.760606 -18.846749 -5.105212 -46.303660 -61.440626 -1.605752 73.293892 -55.864645 -50.786722 37.582943 -14.626128 -38.950134 12.494739 2.539233 16.319739 58.647601 -11.320556 5.374871 1.609405 12.279587 37.914348 32.107832 -7.459083 -4.796519 
-135.464554 26.899837 99.332779 -175.610987 -14.201581 61.846899 53.287074 17.222769 -35.519615 -2.689470 15.621584 66.027093 -17.326826 0.242475 -0.414417 nan nan nan -12.409613 -10.126795 3.935556 1.668470 4.930075 21.793240 0.015620 1.919419 -25.753931 nan nan nan -19.606272 4.041771 13.840023 0.334269 -13.518055 8.959974 2.394909 -2.985662 -0.072256 -13.864021 21.750115 24.036431 15.327065 8.709556 8.151345 6.665706 -18.876750 -4.805217 -56.895892 -63.001140 7.306869 75.093486 -55.742677 -52.034728 35.748952 -16.130349 -39.261851 13.481041 2.181410 16.430669 60.670155 -10.257749 5.939581 0.315759 12.748060 36.598511 31.942447 -6.601357 -6.343155 
-135.827332 26.817341 99.230904 -173.075891 -13.447704 62.950743 50.520328 14.898494 -35.228787 -2.213705 15.560858 67.046492 -16.888679 1.271577 2.110324 nan nan nan -11.811754 -9.411209 2.912868 1.715877 4.702714 21.444723 -0.308812 1.569902 -25.806080 nan nan nan -19.127450 3.221353 12.704961 0.746381 -13.846396 9.315236 2.025433 -2.996832 -0.075813 -13.557114 21.135911 23.594627 15.301738 7.478532 8.310142 6.786083 -18.776124 -4.590314 -61.073810 -61.890622 12.703636 75.862543 -58.330540 -51.381022 39.449811 -14.125699 -39.295355 14.645537 2.394872 16.260694 62.574980 -9.378897 6.721572 -0.958912 13.246812 34.377061 30.870563 -5.591301 -7.911070 
-136.246979 26.648872 99.154556 -171.016477 -12.746660 64.008474 48.100401 12.456385 -34.312989 -1.155407 15.948153 68.055984 -16.595243 2.057828 3.890129 nan nan nan -11.228481 -8.128439 1.900320 1.802878 4.278151 20.973817 -0.254504 2.018643 -25.725746 nan nan nan -18.647022 3.076345 11.400549 1.343377 -13.732438 10.495326 2.027171 -3.217594 -0.531668 -12.859682 20.225832 23.235400 14.741796 5.881093 8.287594 6.276621 -19.343279 -4.205795 -68.057778 -61.719384 19.496316 76.408079 -59.358240 -51.346168 39.764749 -14.647716 -39.006025 15.536869 2.308260 15.397097 63.986744 -8.373973 7.467673 -2.100525 13.566400 32.182984 30.294778 -5.118957 -8.771848 
-136.675827 26.459238 99.115746 -169.035001 -11.942666 64.806582 45.714685 9.890809 -32.991613 0.332222 16.432627 68.649175 -16.442860 3.374825 6.196716 nan nan nan -10.696048 -6.696342 1.231899 1.947431 3.470246 20.649014 -0.136961 2.761751 -25.716795 nan nan nan -18.120942 3.169116 10.382409 2.056467 -13.548592 11.949974 2.212914 -3.583790 -1.269284 -12.099840 19.298432 22.881111 14.029701 4.254903 8.232707 5.585624 -20.191203 -3.543770 -74.156316 -61.216996 25.333063 76.993318 -60.374397 -51.946260 39.106922 -15.481116 -39.496891 16.169784 2.386912 14.317341 65.201938 -7.306263 8.314461 -3.203757 13.747298 29.925556 29.295624 -4.554573 -9.129356 
-137.115463 26.239914 99.096931 -167.266258 -11.091814 65.618363 43.229299 7.732238 -31.466985 1.814067 16.529193 68.940319 -15.982975 4.594194 8.085993 nan nan nan -9.962948 -5.023527 0.699292 1.957458 3.121012 19.996684 0.088803 3.692564 -25.588785 nan nan nan -17.406843 2.897134 9.700032 2.675276 -13.416177 12.923396 2.381270 -3.790290 -2.086928 -11.446600 18.533084 22.756412 13.199564 2.980889 8.259684 4.493794 -20.930701 -2.722614 -79.303424 -60.004850 30.280857 77.560906 -61.623839 -52.241012 38.347415 -16.102286 -39.662970 16.970173 2.990619 13.965667 65.909661 -6.040959 9.076689 -4.295620 14.224110 27.757056 27.900808 -3.795198 -9.636753 
-137.572662 26.018322 99.083946 -165.691198 -10.341357 66.551119 40.644938 6.121616 -29.733566 3.284508 16.474852 68.807821 -14.957055 5.795291 10.386817 nan nan nan -9.209896 -3.545419 0.086532 1.933168 3.564888 19.220050 0.156794 4.598538 -25.261142 nan nan nan -16.601877 2.513796 9.081931 3.211870 -13.194400 13.262915 2.502212 -4.000421 -2.708445 -11.072670 17.599342 22.777175 12.351291 2.254586 8.542462 3.146110 -21.693726 -1.639959 -83.199051 -58.367260 33.999402 77.790101 -63.152009 -51.864355 37.843953 -16.561369 -39.340540 17.718811 3.754415 13.775916 66.340174 -4.883061 9.675386 -5.422342 14.954783 25.577395 26.061886 -3.216218 -9.813325 
-138.066757 25.820662 99.098564 -164.152534 -9.621035 67.315918 38.095401 4.728712 -27.658475 4.262845 16.337982 68.417247 -14.616340 6.531440 11.024895 nan nan nan -8.610014 -2.249960 -0.316639 1.912040 4.047433 18.550547 0.654740 5.876085 -24.934578 nan nan nan -15.688446 2.340837 8.678878 3.752867 -12.933605 13.344553 2.662660 -4.309778 -3.242048 -10.752646 16.754329 22.848371 11.507748 1.427924 8.775977 1.896760 -22.733044 -0.463099 -85.709975 -56.515924 36.288147 77.749499 -64.719701 -51.624450 36.883128 -17.921462 -38.926660 17.936641 4.510716 13.183385 66.818078 -3.883340 9.979786 -6.369414 15.510379 23.496238 24.190423 -2.502521 -9.366244 
